REM DIRINDEX 1\2,1\3\5,1\3\6,1\4\7,1\4\8
REM DIRNAME folder01,folder02,folder03,folder04,folder05,folder06,folder07,folder08
TITLE ""
FILE "JE_21.mp3" MP3
  TRACK 01 AUDIO
    TITLE "0:"
    INDEX 01 00:00:00
  TRACK 02 AUDIO
    TITLE "7:cjc139_4010"
    INDEX 01 00:00:17
  TRACK 03 AUDIO
    TITLE "0:"
    INDEX 01 00:03:47
  TRACK 04 AUDIO
    TITLE "8:cjc139_4011"
    INDEX 01 00:06:31
  TRACK 05 AUDIO
    TITLE "0:"
    INDEX 01 00:09:59
  TRACK 06 AUDIO
    TITLE "7:cjc139_4012"
    INDEX 01 00:12:42
  TRACK 07 AUDIO
    TITLE "0:"
    INDEX 01 00:15:03
  TRACK 08 AUDIO
    TITLE "8:cjc139_4013"
    INDEX 01 00:17:65
  TRACK 09 AUDIO
    TITLE "0:"
    INDEX 01 00:20:53
  TRACK 10 AUDIO
    TITLE "7:cjc139_4014"
    INDEX 01 00:23:38
  TRACK 11 AUDIO
    TITLE "0:"
    INDEX 01 00:25:21
  TRACK 12 AUDIO
    TITLE "8:cjc139_4015"
    INDEX 01 00:28:04
  TRACK 13 AUDIO
    TITLE "0:"
    INDEX 01 00:30:08
  TRACK 14 AUDIO
    TITLE "7:cjc139_4016"
    INDEX 01 00:32:70
  TRACK 15 AUDIO
    TITLE "0:"
    INDEX 01 00:34:47
  TRACK 16 AUDIO
    TITLE "8:cjc139_4017"
    INDEX 01 00:37:32
  TRACK 17 AUDIO
    TITLE "0:"
    INDEX 01 00:39:23
  TRACK 18 AUDIO
    TITLE "7:cjc139_4018"
    INDEX 01 00:42:08
  TRACK 19 AUDIO
    TITLE "0:"
    INDEX 01 00:44:24
  TRACK 20 AUDIO
    TITLE "8:cjc139_4019"
    INDEX 01 00:47:09
  TRACK 21 AUDIO
    TITLE "0:"
    INDEX 01 00:49:04
  TRACK 22 AUDIO
    TITLE "7:cjc139_4020"
    INDEX 01 00:51:67
  TRACK 23 AUDIO
    TITLE "0:"
    INDEX 01 00:54:15
  TRACK 24 AUDIO
    TITLE "8:cjc139_4021"
    INDEX 01 00:57:01
  TRACK 25 AUDIO
    TITLE "0:"
    INDEX 01 00:59:43
  TRACK 26 AUDIO
    TITLE "7:cjc139_4022"
    INDEX 01 01:02:32
  TRACK 27 AUDIO
    TITLE "0:"
    INDEX 01 01:05:15
  TRACK 28 AUDIO
    TITLE "8:cjc139_4023"
    INDEX 01 01:07:74
  TRACK 29 AUDIO
    TITLE "0:"
    INDEX 01 01:11:31
  TRACK 30 AUDIO
    TITLE "7:cjc139_4024"
    INDEX 01 01:14:19
  TRACK 31 AUDIO
    TITLE "0:"
    INDEX 01 01:16:36
  TRACK 32 AUDIO
    TITLE "8:cjc139_4025"
    INDEX 01 01:19:25
  TRACK 33 AUDIO
    TITLE "0:"
    INDEX 01 01:21:43
  TRACK 34 AUDIO
    TITLE "7:cjc139_4026"
    INDEX 01 01:24:30
  TRACK 35 AUDIO
    TITLE "0:"
    INDEX 01 01:26:62
  TRACK 36 AUDIO
    TITLE "8:cjc139_4027"
    INDEX 01 01:29:46
  TRACK 37 AUDIO
    TITLE "0:"
    INDEX 01 01:32:04
  TRACK 38 AUDIO
    TITLE "7:cjc139_4028"
    INDEX 01 01:34:63
  TRACK 39 AUDIO
    TITLE "0:"
    INDEX 01 01:37:01
  TRACK 40 AUDIO
    TITLE "8:cjc139_4029"
    INDEX 01 01:39:63
  TRACK 41 AUDIO
    TITLE "0:"
    INDEX 01 01:41:48
  TRACK 42 AUDIO
    TITLE "7:cjc139_4030"
    INDEX 01 01:44:32
  TRACK 43 AUDIO
    TITLE "0:"
    INDEX 01 01:47:15
  TRACK 44 AUDIO
    TITLE "8:cjc139_4031"
    INDEX 01 01:50:00
  TRACK 45 AUDIO
    TITLE "0:"
    INDEX 01 01:52:40
  TRACK 46 AUDIO
    TITLE "7:cjc139_4032"
    INDEX 01 01:55:24
  TRACK 47 AUDIO
    TITLE "0:"
    INDEX 01 01:57:17
  TRACK 48 AUDIO
    TITLE "8:cjc139_4033"
    INDEX 01 02:00:02
  TRACK 49 AUDIO
    TITLE "0:"
    INDEX 01 02:01:72
  TRACK 50 AUDIO
    TITLE "7:cjc139_4034"
    INDEX 01 02:04:59
  TRACK 51 AUDIO
    TITLE "0:"
    INDEX 01 02:08:01
  TRACK 52 AUDIO
    TITLE "8:cjc139_4035"
    INDEX 01 02:10:61
  TRACK 53 AUDIO
    TITLE "0:"
    INDEX 01 02:13:46
  TRACK 54 AUDIO
    TITLE "7:cjc139_4036"
    INDEX 01 02:16:30
  TRACK 55 AUDIO
    TITLE "0:"
    INDEX 01 02:18:23
  TRACK 56 AUDIO
    TITLE "8:cjc139_4037"
    INDEX 01 02:21:08
  TRACK 57 AUDIO
    TITLE "0:"
    INDEX 01 02:23:44
  TRACK 58 AUDIO
    TITLE "7:cjc139_4038"
    INDEX 01 02:26:29
  TRACK 59 AUDIO
    TITLE "0:"
    INDEX 01 02:29:09
  TRACK 60 AUDIO
    TITLE "8:cjc139_4039"
    INDEX 01 02:31:69
  TRACK 61 AUDIO
    TITLE "0:"
    INDEX 01 02:34:58
  TRACK 62 AUDIO
    TITLE "7:cjc139_4040"
    INDEX 01 02:37:44
  TRACK 63 AUDIO
    TITLE "0:"
    INDEX 01 02:40:05
  TRACK 64 AUDIO
    TITLE "8:cjc139_4041"
    INDEX 01 02:42:65
  TRACK 65 AUDIO
    TITLE "0:"
    INDEX 01 02:45:52
  TRACK 66 AUDIO
    TITLE "7:cjc139_4042"
    INDEX 01 02:48:40
  TRACK 67 AUDIO
    TITLE "0:"
    INDEX 01 02:50:02
  TRACK 68 AUDIO
    TITLE "8:cjc139_4043"
    INDEX 01 02:52:63
  TRACK 69 AUDIO
    TITLE "0:"
    INDEX 01 02:54:37
  TRACK 70 AUDIO
    TITLE "7:cjc139_4044"
    INDEX 01 02:57:20
  TRACK 71 AUDIO
    TITLE "0:"
    INDEX 01 02:58:72
  TRACK 72 AUDIO
    TITLE "8:cjc139_4045"
    INDEX 01 03:01:58
  TRACK 73 AUDIO
    TITLE "0:"
    INDEX 01 03:03:73
  TRACK 74 AUDIO
    TITLE "7:cjc139_4046"
    INDEX 01 03:06:60
  TRACK 75 AUDIO
    TITLE "0:"
    INDEX 01 03:09:05
  TRACK 76 AUDIO
    TITLE "8:cjc139_4047"
    INDEX 01 03:11:65
  TRACK 77 AUDIO
    TITLE "0:"
    INDEX 01 03:14:10
  TRACK 78 AUDIO
    TITLE "7:cjc139_4048"
    INDEX 01 03:16:72
  TRACK 79 AUDIO
    TITLE "0:"
    INDEX 01 03:21:26
  TRACK 80 AUDIO
    TITLE "8:cjc139_4049"
    INDEX 01 03:24:11
  TRACK 81 AUDIO
    TITLE "0:"
    INDEX 01 03:28:65
  TRACK 82 AUDIO
    TITLE "7:cjc139_4050"
    INDEX 01 03:31:52
  TRACK 83 AUDIO
    TITLE "0:"
    INDEX 01 03:34:42
  TRACK 84 AUDIO
    TITLE "8:cjc139_4051"
    INDEX 01 03:37:27
  TRACK 85 AUDIO
    TITLE "0:"
    INDEX 01 03:39:43
  TRACK 86 AUDIO
    TITLE "7:cjc139_4052"
    INDEX 01 03:42:28
  TRACK 87 AUDIO
    TITLE "0:"
    INDEX 01 03:44:33
  TRACK 88 AUDIO
    TITLE "8:cjc139_4053"
    INDEX 01 03:47:19
  TRACK 89 AUDIO
    TITLE "0:"
    INDEX 01 03:49:36
  TRACK 90 AUDIO
    TITLE "7:cjc139_4054"
    INDEX 01 03:52:23
  TRACK 91 AUDIO
    TITLE "0:"
    INDEX 01 03:54:49
  TRACK 92 AUDIO
    TITLE "8:cjc139_4055"
    INDEX 01 03:57:37
  TRACK 93 AUDIO
    TITLE "0:"
    INDEX 01 03:59:58
  TRACK 94 AUDIO
    TITLE "7:cjc139_4056"
    INDEX 01 04:02:46
  TRACK 95 AUDIO
    TITLE "0:"
    INDEX 01 04:05:27
  TRACK 96 AUDIO
    TITLE "8:cjc139_4057"
    INDEX 01 04:08:12
  TRACK 97 AUDIO
    TITLE "0:"
    INDEX 01 04:11:14
  TRACK 98 AUDIO
    TITLE "7:cjc139_4058"
    INDEX 01 04:13:74
  TRACK 99 AUDIO
    TITLE "0:"
    INDEX 01 04:16:56
  TRACK 100 AUDIO
    TITLE "8:cjc139_4059"
    INDEX 01 04:19:43
  TRACK 101 AUDIO
    TITLE "0:"
    INDEX 01 04:22:12
  TRACK 102 AUDIO
    TITLE "7:cjc139_4060"
    INDEX 01 04:24:73
  TRACK 103 AUDIO
    TITLE "0:"
    INDEX 01 04:28:11
  TRACK 104 AUDIO
    TITLE "8:cjc139_4061"
    INDEX 01 04:30:72
  TRACK 105 AUDIO
    TITLE "0:"
    INDEX 01 04:33:65
  TRACK 106 AUDIO
    TITLE "7:cjc139_4062"
    INDEX 01 04:36:53
  TRACK 107 AUDIO
    TITLE "0:"
    INDEX 01 04:38:74
  TRACK 108 AUDIO
    TITLE "8:cjc139_4063"
    INDEX 01 04:41:60
  TRACK 109 AUDIO
    TITLE "0:"
    INDEX 01 04:44:13
  TRACK 110 AUDIO
    TITLE "7:cjc139_4064"
    INDEX 01 04:47:00
  TRACK 111 AUDIO
    TITLE "0:"
    INDEX 01 04:49:62
  TRACK 112 AUDIO
    TITLE "8:cjc139_4065"
    INDEX 01 04:52:50
  TRACK 113 AUDIO
    TITLE "0:"
    INDEX 01 04:54:73
